<mxfile host="app.diagrams.net" modified="2023-08-20T01:43:56.890Z" agent="Mozilla/5.0 (Windows NT 10.0; Win64; x64) AppleWebKit/537.36 (KHTML, like Gecko) Chrome/115.0.0.0 Safari/537.36" version="21.6.8" etag="DqXEuZSCOJ78n5be-S4u" type="github">
  <diagram name="Page-1" id="WwZqWriOgSdLukJcTicj">
    <mxGraphModel>
      <root>
        <mxCell id="0" />
        <mxCell id="1" parent="0" />
        <mxCell id="2" value="Back End" style="whiteSpace=wrap;strokeWidth=2;verticalAlign=top;" vertex="1" parent="1">
          <mxGeometry width="604" height="375" as="geometry" />
        </mxCell>
        <mxCell id="3" value="The amalgamation" style="whiteSpace=wrap;strokeWidth=2;verticalAlign=top;" vertex="1" parent="1">
          <mxGeometry x="25" y="20" width="554" height="335" as="geometry" />
        </mxCell>
        <mxCell id="4" value="Angular" style="whiteSpace=wrap;strokeWidth=2;verticalAlign=top;" vertex="1" parent="1">
          <mxGeometry x="50" y="40" width="504" height="295" as="geometry" />
        </mxCell>
        <mxCell id="5" value="Flask" style="whiteSpace=wrap;strokeWidth=2;verticalAlign=top;" vertex="1" parent="1">
          <mxGeometry x="1190" y="54" width="226" height="235" as="geometry" />
        </mxCell>
        <mxCell id="6" value="Executing Python Files" style="whiteSpace=wrap;strokeWidth=2;" vertex="1" parent="1">
          <mxGeometry x="1215" y="165" width="176" height="33" as="geometry" />
        </mxCell>
        <mxCell id="7" value="Spring" style="whiteSpace=wrap;strokeWidth=2;verticalAlign=top;" vertex="1" parent="1">
          <mxGeometry x="904" y="120" width="235" height="103" as="geometry" />
        </mxCell>
        <mxCell id="8" value="Connecting to Database" style="whiteSpace=wrap;strokeWidth=2;" vertex="1" parent="1">
          <mxGeometry x="929" y="155" width="185" height="33" as="geometry" />
        </mxCell>
        <mxCell id="9" value="Nginx" style="whiteSpace=wrap;strokeWidth=2;verticalAlign=top;" vertex="1" parent="1">
          <mxGeometry x="654" y="120" width="200" height="103" as="geometry" />
        </mxCell>
        <mxCell id="10" value="Managing Requests" style="whiteSpace=wrap;strokeWidth=2;" vertex="1" parent="1">
          <mxGeometry x="679" y="155" width="150" height="33" as="geometry" />
        </mxCell>
        <mxCell id="11" value="Front End" style="whiteSpace=wrap;strokeWidth=2;verticalAlign=top;" vertex="1" parent="1">
          <mxGeometry x="75" y="60" width="234" height="255" as="geometry" />
        </mxCell>
        <mxCell id="12" value="Communication" style="whiteSpace=wrap;strokeWidth=2;verticalAlign=top;" vertex="1" parent="1">
          <mxGeometry x="359" y="120" width="171" height="103" as="geometry" />
        </mxCell>
        <mxCell id="13" value="HTTP Requests" style="whiteSpace=wrap;strokeWidth=2;" vertex="1" parent="1">
          <mxGeometry x="384" y="155" width="121" height="33" as="geometry" />
        </mxCell>
        <mxCell id="14" value="Front End Component 1" style="whiteSpace=wrap;strokeWidth=2;" vertex="1" parent="1">
          <mxGeometry x="100" y="155" width="184" height="33" as="geometry" />
        </mxCell>
        <mxCell id="15" value="Front End Component 2" style="whiteSpace=wrap;strokeWidth=2;" vertex="1" parent="1">
          <mxGeometry x="100" y="247" width="184" height="33" as="geometry" />
        </mxCell>
        <mxCell id="16" value="User Experience" style="whiteSpace=wrap;strokeWidth=2;verticalAlign=top;" vertex="1" parent="1">
          <mxGeometry x="127" y="410" width="131" height="33" as="geometry" />
        </mxCell>
        <mxCell id="17" value="" style="curved=1;startArrow=none;endArrow=block;exitX=0.9953512396694215;exitY=0.5060606291799834;entryX=0.002916666666666667;entryY=0.5060606291799834;" edge="1" parent="1" source="13" target="10">
          <mxGeometry relative="1" as="geometry">
            <Array as="points" />
          </mxGeometry>
        </mxCell>
        <mxCell id="18" value="" style="curved=1;startArrow=none;endArrow=block;exitX=1.0027500406901042;exitY=0.5060606291799834;entryX=0.002229762721706081;entryY=0.5060606291799834;" edge="1" parent="1" source="10" target="8">
          <mxGeometry relative="1" as="geometry">
            <Array as="points" />
          </mxGeometry>
        </mxCell>
        <mxCell id="19" value="" style="curved=1;startArrow=none;endArrow=block;exitX=1.0027956575960726;exitY=0.5060606291799834;entryX=-0.0027432008223100142;entryY=0.2699502830560713;" edge="1" parent="1" source="8" target="6">
          <mxGeometry relative="1" as="geometry">
            <Array as="points">
              <mxPoint x="1190" y="172" />
            </Array>
          </mxGeometry>
        </mxCell>
        <mxCell id="20" value="" style="curved=1;startArrow=none;endArrow=block;exitX=0.6476428584773876;exitY=0;entryX=0.3669509671181327;entryY=0;" edge="1" parent="1" source="14" target="6">
          <mxGeometry relative="1" as="geometry">
            <Array as="points">
              <mxPoint x="309" y="100" />
              <mxPoint x="1190" y="100" />
            </Array>
          </mxGeometry>
        </mxCell>
        <mxCell id="21" value="" style="curved=1;startArrow=none;endArrow=block;exitX=0.9992527339769446;exitY=0.4969697432084517;entryX=0.3669509671181327;entryY=1.0121212583599668;" edge="1" parent="1" source="15" target="6">
          <mxGeometry relative="1" as="geometry">
            <Array as="points">
              <mxPoint x="1190" y="263" />
            </Array>
          </mxGeometry>
        </mxCell>
        <mxCell id="22" value="" style="curved=1;startArrow=none;endArrow=block;" edge="1" parent="1" source="4" target="13">
          <mxGeometry relative="1" as="geometry">
            <Array as="points" />
          </mxGeometry>
        </mxCell>
        <mxCell id="23" value="" style="curved=1;dashed=1;dashPattern=2 3;startArrow=none;endArrow=block;" edge="1" parent="1" source="4" target="6">
          <mxGeometry relative="1" as="geometry">
            <Array as="points" />
          </mxGeometry>
        </mxCell>
      </root>
    </mxGraphModel>
  </diagram>
</mxfile>
